# Blender v2.62 (sub 0) OBJ File: 'cube.blend'
# www.blender.org
mtllib cube.mtl
v 1.000000 -1.000000 -1.000000
v 1.000000 -1.000000 1.000000
v -1.000000 -1.000000 1.000000
v -1.000000 -1.000000 -1.000000
v 1.000000 1.000000 -0.999999
v 0.999999 1.000000 1.000001
v -1.000000 1.000000 1.000000
v -1.000000 1.000000 -1.000000
vt 0.126874 0.998126
vt 0.126874 0.749375
vt 0.375625 0.749375
vt 0.375625 0.998126
vt 0.375624 0.500625
vt 0.375625 0.251875
vt 0.624374 0.251874
vt 0.624375 0.500624
vt 0.624375 0.749375
vt 0.624375 0.998126
vt 0.375624 0.003126
vt 0.624373 0.003126
vt 0.873126 0.749375
vt 0.873126 0.998126
vn 0.000000 0.000000 -1.000000
vn 1.000000 0.000000 0.000000
vn -1.000000 -0.000000 -0.000000
vn 0.000000 1.000000 0.000000
vn -0.000000 -0.000000 1.000000
vn 0.000000 -1.000000 0.000000
usemtl MaterialDiffuseR
s off
f 5/1/1 1/2/1 4/3/1
f 5/1/1 4/3/1 8/4/1
usemtl MaterialDiffuseM
f 1/5/2 5/6/2 6/7/2
f 1/5/2 6/7/2 2/8/2
usemtl MaterialSpecularG
f 3/9/3 7/10/3 8/4/3
f 3/9/3 8/4/3 4/3/3
usemtl MaterialSpecularY
f 5/6/4 8/11/4 7/12/4
f 5/6/4 7/12/4 6/7/4
usemtl MaterialPhongB
f 2/13/5 6/14/5 7/10/5
f 2/13/5 7/10/5 3/9/5
usemtl MaterialPhongC
f 1/5/6 2/8/6 3/9/6
f 1/5/6 3/9/6 4/3/6
